<?xml version="1.0" standalone="no"?><!DOCTYPE svg PUBLIC "-//W3C//DTD SVG 1.1//EN" "http://www.w3.org/Graphics/SVG/1.1/DTD/svg11.dtd"><svg t="1505355220029" class="icon" style="" viewBox="0 0 1024 1024" version="1.1" xmlns="http://www.w3.org/2000/svg" p-id="2714" xmlns:xlink="http://www.w3.org/1999/xlink" width="200" height="200"><defs><style type="text/css"></style></defs><path d="M0 503.000412C0 225.200955 225.221997 0 503.183886 0L503.183886 0C781.084672 0 1006.367771 225.354693 1006.367771 503.000412L1006.367771 520.999588C1006.367771 798.799045 781.145774 1024 503.183886 1024L503.183886 1024C225.283099 1024 0 798.645307 0 520.999588L0 503.000412ZM685.535166 551.95887C675.323802 551.95887 664.932542 541.294141 664.932542 530.399623 664.932542 519.658295 675.288639 508.843778 685.535166 508.843778 701.125327 508.843778 711.480607 519.658295 711.480607 530.399623 711.480607 541.294141 701.125327 551.95887 685.535166 551.95887M571.540408 551.95887C561.257902 551.95887 550.826578 541.294141 550.826578 530.399623 550.826578 519.658295 561.257902 508.843778 571.540408 508.843778 587.277752 508.843778 597.485849 519.658295 597.485849 530.399623 597.485849 541.294141 587.277752 551.95887 571.540408 551.95887M804.761534 578.964101C804.761534 492.730511 721.835887 422.453592 628.702145 422.453592 530.080856 422.453592 452.457138 492.767107 452.457138 578.964101 452.457138 665.427481 530.116016 735.467805 628.702145 735.467805 649.342382 735.467805 670.161697 730.098418 690.8788 724.692435L747.708551 757.139395 732.118393 703.209783C773.727582 670.680271 804.761534 627.600923 804.761534 578.964101M359.14105 406.267134C343.588506 406.267134 327.924754 395.449211 327.924754 379.301902 327.924754 363.075445 343.588506 352.370715 359.14105 352.370715 374.692778 352.370715 385.016168 363.035445 385.016168 379.301902 385.016168 395.449211 374.692778 406.267134 359.14105 406.267134M504.169759 352.370715C519.833512 352.370715 530.116016 363.075445 530.116016 379.301902 530.116016 395.449211 519.833512 406.270538 504.169759 406.270538 488.687536 406.270538 473.100648 395.449211 473.100648 379.301902 473.100648 363.038849 488.652376 352.370715 504.169759 352.370715M615.565068 410.841623C622.297962 410.841623 628.922104 411.370136 635.582224 412.131842 617.650188 325.216547 528.393953 260.654545 426.475721 260.654545 312.554555 260.654545 219.238466 341.439601 219.238466 444.089436 219.238466 503.318647 250.269147 551.95887 302.164113 589.742025L281.450283 654.609558 353.908625 616.823001C379.81645 622.119195 400.603873 627.604326 426.475721 627.604326 432.988656 627.604326 439.431268 627.298793 445.80029 626.806876 441.772327 612.368511 439.396108 597.285038 439.396108 581.553902 439.431268 487.321125 517.160468 410.841623 615.565068 410.841623" p-id="2715"></path></svg>