<?xml version="1.0" standalone="no"?><!DOCTYPE svg PUBLIC "-//W3C//DTD SVG 1.1//EN" "http://www.w3.org/Graphics/SVG/1.1/DTD/svg11.dtd"><svg t="1505361123786" class="icon" style="" viewBox="0 0 1024 1024" version="1.1" xmlns="http://www.w3.org/2000/svg" p-id="3354" xmlns:xlink="http://www.w3.org/1999/xlink" width="200" height="200"><defs><style type="text/css"></style></defs><path d="M465.865 510.007c-101.027 4.665-182.726 58.791-182.726 126.31 0 67.44 81.698 118.103 182.726 113.381 101.136-4.592 182.982-67.885 182.982-135.311-0.001-67.367-81.845-109.028-182.982-104.381zM534.727 679.823c-30.945 39.948-92.173 59.456-151.65 27.255-28.289-15.362-27.238-45.513-27.238-45.513s-11.769-95.201 89.885-107.077c101.765-11.822 119.948 85.389 89.004 125.335z" p-id="3355"></path><path d="M418.394 629.162c-18.995 1.977-32.569 18.535-32.569 34.339 0 15.878 15.27 26.814 34.266 24.586 18.883-2.144 34.267-16.746 34.267-32.573 0-15.857-14.164-28.435-35.963-26.353z" p-id="3356"></path><path d="M466.546 616.087c-6.51 4.723-7.839 13.722-4.298 19.343 3.394 5.778 11.325 6.441 17.74 1.628 6.273-4.965 8.707-13.596 5.313-19.35-3.394-5.622-11.212-7.229-18.756-1.62z" p-id="3357"></path><path d="M512.278 5.668c-280.665 0-508.19 227.523-508.19 508.19s227.523 508.19 508.19 508.19 508.19-227.523 508.19-508.19-227.523-508.19-508.19-508.19zM739.173 659.131c-41.676 88.486-179.035 131.568-280.835 123.581-96.748-7.616-221.14-39.744-233.995-156.814 0 0-6.786-53.040 44.63-121.646 0 0 73.916-103.258 160.041-132.729 86.198-29.305 96.231 20.306 96.231 49.628-4.572 24.898-13.131 39.523 19.217 29.47 0 0 84.723-39.28 119.581-4.425 28.144 28.141 4.647 66.851 4.647 66.851s-11.654 12.927 12.358 17.577c24.081 4.796 99.767 39.872 58.123 128.507zM655.634 414.658c-9.223 0-16.638-7.451-16.638-16.618 0-9.312 7.413-16.762 16.638-16.762 0 0 103.845-19.22 91.434 92.394 0 0.663-0.073 1.181-0.221 1.771-1.181 7.891-8.134 13.959-16.321 13.959-9.237 0-16.765-7.395-16.765-16.617 0 0.001 16.451-74.596-58.128-58.131zM831.202 503.922h-0.149c-2.731 18.882-12.115 20.397-23.275 20.397-13.351 0-24.159-8.412-24.159-21.764 0-11.582 4.793-23.345 4.793-23.345 1.422-4.869 12.727-35.189-7.449-80.446-36.922-62.038-111.314-62.96-120.096-59.417-8.851 3.465-21.942 5.235-21.942 5.235-13.43 0-24.217-10.955-24.217-24.234 0-11.174 7.471-20.619 17.649-23.493 0 0 0.218-0.369 0.591-0.444 0.737-0.148 1.477-0.906 2.288-0.979 10.345-1.972 47.285-9.237 83.173-0.83 64.253 15.013 152.444 77.125 112.791 209.319z" p-id="3358"></path></svg>