<?xml version="1.0" standalone="no"?><!DOCTYPE svg PUBLIC "-//W3C//DTD SVG 1.1//EN" "http://www.w3.org/Graphics/SVG/1.1/DTD/svg11.dtd"><svg t="1505358945312" class="icon" style="" viewBox="0 0 1024 1024" version="1.1" xmlns="http://www.w3.org/2000/svg" p-id="4197" xmlns:xlink="http://www.w3.org/1999/xlink" width="200" height="200"><defs><style type="text/css"></style></defs><path d="M511.997444 1022.909759c-69.032594 0-136.015494-13.527368-199.087014-40.204045-60.903299-25.764226-115.601318-62.636241-162.56547-109.600394-46.962109-46.958022-83.836168-101.656041-109.599372-162.56547C14.066867 647.472417 0.545629 580.491561 0.545629 511.451814c0-69.032594 13.522259-136.015494 40.199958-199.087014 25.763204-60.903299 62.636241-115.601318 109.599372-162.56547 46.964153-46.962109 101.66115-83.836168 162.56547-109.599372C375.981949 13.522259 442.964849 0 511.997444 0c69.033616 0 136.022647 13.522259 199.087014 40.199958 60.90943 25.762182 115.601318 62.642371 162.56547 109.599372 46.964153 46.964153 83.836168 101.66115 109.600394 162.56547 26.676677 63.07152 40.204045 130.05442 40.204045 199.093145 0 69.033616-13.527368 136.015494-40.204045 199.087014-25.764226 60.90943-62.636241 115.601318-109.600394 162.55934-46.964153 46.964153-101.656041 83.842298-162.55934 109.600394C648.01396 1009.381369 581.03106 1022.909759 511.997444 1022.909759L511.997444 1022.909759zM511.997444 35.029742c-64.320137 0-126.71115 12.597547-185.442141 37.436038-56.730342 23.996544-107.678422 58.345779-151.437246 102.106646-43.760867 43.752693-78.110103 94.706903-102.106646 151.437246C48.172919 384.740664 35.575372 447.131677 35.575372 511.451814s12.597547 126.717281 37.436038 185.442141c23.996544 56.730342 58.35191 107.683531 102.106646 151.438268 43.758824 43.758824 94.706903 78.11419 151.437246 102.106646 58.730991 24.844622 121.123026 37.436038 185.442141 37.436038 64.325246 0 126.717281-12.591416 185.442141-37.436038 56.730342-23.996544 107.683531-58.347823 151.438268-102.106646 43.760867-43.754736 78.11419-94.702816 102.106646-151.438268 24.844622-58.725882 37.436038-121.116895 37.436038-185.442141 0-64.324224-12.591416-126.717281-37.436038-185.442141-23.996544-56.730342-58.345779-107.683531-102.106646-151.437246-43.754736-43.760867-94.707925-78.115212-151.438268-102.106646C638.713703 47.627289 576.322689 35.029742 511.997444 35.029742L511.997444 35.029742zM511.997444 35.029742" p-id="4198"></path><path d="M687.57326 518.307969c-10.722577-3.219634-18.077362-5.408291-12.452454-19.501726 12.159202-30.591123 13.422125-56.988853 0.228879-75.815181-24.72303-35.329124-92.370089-33.416349-169.907994-0.957409 0-0.038828-24.347015 10.658205-18.129473-8.657556 11.929301-38.340315 10.134031-70.463089-8.428677-89.000252-42.07084-42.095363-153.937546 1.588871-249.863434 97.489215-71.839429 71.855777-113.554689 148.000994-113.554689 213.843586 0 125.946857 161.505883 202.519179 319.509098 202.519179 207.131502 0 344.917744-120.344428 344.917744-215.89328C779.887151 564.608986 731.26669 531.850664 687.57326 518.307969L687.57326 518.307969zM435.398556 793.086529c-126.080711 12.443258-234.914768-44.549683-243.106392-127.331372-8.185493-82.760232 87.415469-159.952775 213.479831-172.41749 126.093994-12.465737 234.932138 44.523116 243.106392 127.270065C657.051619 703.415988 561.496637 780.611596 435.398556 793.086529L435.398556 793.086529zM825.124493 287.823647c-50.022345-55.457202-123.805203-76.602975-191.900823-62.121263l-0.030653 0c-15.75383 3.374945-25.804075 18.87333-22.430152 34.602638 3.358596 15.745656 18.856981 25.806119 34.614899 22.442414 48.448802-10.285255 100.877443 4.759459 136.435447 44.156297 35.524285 39.395816 45.177057 93.123142 29.959662 140.224213l0.009196 0.009196c-4.95462 15.344096 3.436252 31.754932 18.796696 36.718748 15.299138 4.949511 31.745736-3.427056 36.712617-18.735389l0.009196-0.113418C888.64764 418.750668 875.161143 343.224651 825.124493 287.823647M748.308987 357.144384c-24.341906-27.011821-60.294317-37.271532-93.476678-30.214085-13.565174 2.889599-22.20536 16.238155-19.298391 29.812525 2.898795 13.51715 16.238155 22.201273 29.768588 19.259563l0 0.029632c16.220785-3.430121 33.809735 1.570478 45.708383 14.751463 11.916018 13.205507 15.119304 31.201126 10.009374 46.989697l0.025545 0c-4.253677 13.174853 2.960102 27.344922 16.152325 31.614948 13.188137 4.224046 27.350031-2.972363 31.602687-16.17787C779.225036 420.935238 772.705047 384.143943 748.308987 357.144384M447.994059 557.041671c-59.995957-15.610781-127.803435 14.292683-153.863977 67.153538-26.54078 53.917377-0.878732 113.766198 59.737446 133.332296 62.786443 20.246605 136.794092-10.781841 162.525621-68.97844C541.770119 631.662389 510.084668 573.090796 447.994059 557.041671L447.994059 557.041671zM402.185541 694.727778c-12.19803 19.457789-38.314771 27.982514-57.979981 19.003096-19.384221-8.82615-25.109264-31.421831-12.911234-50.395296 12.045785-18.894787 37.284815-27.306094 56.806976-19.123667C407.853364 652.631393 414.161845 675.084025 402.185541 694.727778L402.185541 694.727778zM442.359955 643.168673c-4.413075 7.533597-14.161895 11.162965-21.797669 8.022008-7.508052-3.088846-9.861215-11.521611-5.595277-18.929528 4.391618-7.374199 13.7634-10.969848 21.248972-7.996464C443.83132 627.047001 446.56663 635.574791 442.359955 643.168673L442.359955 643.168673zM442.359955 643.168673" p-id="4199"></path></svg>